<?xml version="1.0" encoding="UTF-8"?>
<svg id="Layer_1" data-name="Layer 1" xmlns="http://www.w3.org/2000/svg" version="1.1" viewBox="0 0 68 46.3">
  <defs>
    <style>
      .cls-1 {
        font-family: PingFangMO-Ultralight-B5pc-H, 'PingFang MO';
        font-weight: 100;
      }

      .cls-1, .cls-2, .cls-3, .cls-4 {
        fill: #000;
      }

      .cls-1, .cls-3, .cls-4 {
        font-size: 12px;
      }

      .cls-2 {
        stroke-width: 0px;
      }

      .cls-3 {
        font-family: MyriadHebrew-Regular, 'Myriad Hebrew';
      }

      .cls-4 {
        font-family: BebasNeue-Regular, 'Bebas Neue';
      }
    </style>
  </defs>
  <path class="cls-2" d="M-175.3-60.5c4.8,0,8.6,3.9,8.6,8.6s-3.9,8.6-8.6,8.6-8.6-3.9-8.6-8.6c0-4.8,3.9-8.6,8.6-8.6M-175.3-68.5c-9.2,0-16.6,7.4-16.6,16.6s7.4,16.6,16.6,16.6,16.6-7.4,16.6-16.6c0-9.2-7.4-16.6-16.6-16.6h0Z"/>
  <path class="cls-2" d="M-210.3-52.6l13.5-13.5c.6-.6.2-1.7-.7-1.7h-8.5c-.3,0-.5.1-.7.3l-10,10-1.7,1.7v-10.9c0-.6-.4-1-1-1h-6c-.6,0-1,.4-1,1v29.9c0,.6.4,1,1,1h6c.6,0,1-.5,1-1v-10.9l1.7,1.7,10,10c.2.2.4.3.7.3h8.5c.9,0,1.3-1.1.7-1.7l-13.5-13.5c-.4-.4-.4-1,0-1.4Z"/>
  <path class="cls-2" d="M-245,41.9h14.6c.6,0,1-.5,1-1v-6c0-.6-.4-1-1-1h-15.4c-8.8.5-15.8,7.7-15.8,16.6s7,16.2,15.8,16.6h0s15.4,0,15.4,0c.6,0,1-.5,1-1v-6c0-.5-.4-1-1-1h-14.6c-3.3,0-6.2-1.9-7.6-4.6-.6-1.2-1-2.6-1-4s.4-2.8,1-4c1.4-2.7,4.3-4.6,7.6-4.6Z"/>
  <text class="cls-3" transform="translate(-7.9 544.2)"><tspan x="0" y="0">o</tspan></text>
  <path class="cls-2" d="M-179.8-88.3v14.6c0,.5.4,1,1,1h6c.6,0,1-.4,1-1v-15.4h0c-.4-8.8-7.7-15.8-16.6-15.8s-16.2,7-16.6,15.8h0v15.4c0,.5.4,1,1,1h6c.6,0,1-.4,1-1v-14.6c0-3.3,1.9-6.2,4.6-7.6,1.2-.6,2.6-1,4-1s2.8.4,4,1c2.7,1.4,4.6,4.3,4.6,7.6Z"/>
  <path class="cls-2" d="M-372.3,41.9c4.8,0,8.6,3.9,8.6,8.6s-3.9,8.6-8.6,8.6-8.6-3.9-8.6-8.6c0-4.8,3.9-8.6,8.6-8.6M-372.3,33.9c-9.2,0-16.6,7.4-16.6,16.6s7.4,16.6,16.6,16.6,16.6-7.4,16.6-16.6c0-9.2-7.4-16.6-16.6-16.6h0Z"/>
  <path class="cls-2" d="M-411.1,41.9h14.6c.6,0,1-.5,1-1v-6c0-.6-.4-1-1-1h-15.4c-8.8.5-15.8,7.7-15.8,16.6s7,16.2,15.8,16.6h0s15.4,0,15.4,0c.6,0,1-.5,1-1v-6c0-.5-.4-1-1-1h-14.6c-3.3,0-6.2-1.9-7.6-4.6-.6-1.2-1-2.6-1-4s.4-2.8,1-4c1.4-2.7,4.3-4.6,7.6-4.6Z"/>
  <path class="cls-2" d="M-321.3,51.6v14.6c0,.5.4,1,1,1h6c.6,0,1-.4,1-1v-15.4h0c-.4-8.8-7.7-15.8-16.6-15.8s-16.2,7-16.6,15.8h0v15.4c0,.5.4,1,1,1h6c.6,0,1-.4,1-1v-14.6c0-3.3,1.9-6.2,4.6-7.6,1.2-.6,2.6-1,4-1s2.8.4,4,1c2.7,1.4,4.6,4.3,4.6,7.6Z"/>
  <path class="cls-2" d="M-298,72.2h-133.8c-3.3,0-6.2-1.9-7.6-4.6-.6-1.2-1-2.6-1-4h0V23.2c0-2.2-1.8-4-4-4s-4,1.8-4,4v40.4h0c0,8.9,9,16.2,17.8,16.6h0s132.6,0,132.6,0c.5,0,1-.4,1-1v-6c0-.5-.4-1-1-1Z"/>
  <circle class="cls-2" cx="-244.8" cy="50.3" r="4"/>
  <circle class="cls-2" cx="-410.3" cy="50.3" r="4"/>
  <text class="cls-1" transform="translate(-244.8 -126.4)"><tspan x="0" y="0">PNKO</tspan></text>
  <path class="cls-2" d="M-489.6-113.5h13.5c3.7,0,6.5,1,8.4,3,1.9,2,2.8,4.9,2.8,8.8v4.7c0,3.9-.9,6.8-2.8,8.8-1.9,2-4.7,3-8.4,3h-6v19.5h-7.5v-47.8ZM-476-92c1.2,0,2.2-.3,2.8-1,.6-.7.9-1.8.9-3.5v-5.7c0-1.6-.3-2.8-.9-3.5s-1.5-1-2.8-1h-6v14.7h6Z"/>
  <path class="cls-2" d="M-461.9-113.5h9.4l7.3,28.6h.1v-28.6h6.7v47.8h-7.7l-9-34.9h-.1v34.9h-6.7v-47.8Z"/>
  <path class="cls-2" d="M-489.6-64.3h7.5v20.2l9.6-20.2h7.5l-9,17.6,9.1,30.3h-7.9l-6.4-21.3-3,6.1v15.2h-7.5v-47.8Z"/>
  <path class="cls-2" d="M-458.9-18.9c-2-2.1-3-5.1-3-8.9v-25.2c0-3.8,1-6.8,3-8.9,2-2.1,4.9-3.1,8.8-3.1s6.7,1,8.8,3.1c2,2.1,3,5.1,3,8.9v25.2c0,3.8-1,6.8-3,8.9-2,2.1-4.9,3.1-8.8,3.1s-6.7-1-8.8-3.1ZM-446.1-27.3v-26.1c0-3.1-1.3-4.7-4-4.7s-4,1.6-4,4.7v26.1c0,3.1,1.3,4.7,4,4.7s4-1.6,4-4.7Z"/>
  <text class="cls-4" transform="translate(-392.5 -103.6)"><tspan x="0" y="0">P</tspan></text>
  <g>
    <path class="cls-2" d="M-380.7-69.7h.4v.5s0,2.9,0,2.9h-.4v-3.4ZM-379.5-67.2c-.2,0-.3,0-.4-.1-.1,0-.2-.2-.3-.3,0-.1-.1-.3-.1-.4s0-.3,0-.4c0-.2,0-.3,0-.5,0-.2,0-.3.1-.4s.1-.2.3-.3c.1,0,.3,0,.4,0s.4,0,.5.2.3.3.4.4c0,.2.1.4.1.6s0,.5-.1.6c0,.2-.2.3-.4.4s-.3.2-.5.2ZM-379.6-67.6c.1,0,.3,0,.4-.1.1,0,.2-.2.3-.3,0-.1,0-.3,0-.5,0-.3,0-.5-.2-.6-.1-.2-.3-.3-.6-.3s-.3,0-.4.1c-.1,0-.2.2-.3.3,0,.1,0,.3,0,.5s0,.3,0,.4c0,.1.1.2.2.3.1,0,.2.1.4.1Z"/>
    <path class="cls-2" d="M-378-69.7h.4v2.4h-.4v-2.4ZM-376.7-69.7c.1,0,.2,0,.3,0s.2,0,.3.2c0,0,.1.2.2.3s0,.2,0,.4v1.6h-.4v-1.5c0-.2,0-.3-.1-.4,0,0-.2-.1-.4-.1s-.3,0-.4.1c-.1,0-.2.2-.3.3,0,.1-.1.3-.1.4v-.3c0-.1,0-.3,0-.4s.1-.2.2-.3c0,0,.2-.1.3-.2,0,0,.2,0,.3,0Z"/>
    <path class="cls-2" d="M-375.1-71.1h.3v4.6h-.3v-4.6Z"/>
    <path class="cls-2" d="M-372.4-69.8l.2.3-1.4.8,1.4.8-.2.3-1.6-.9v-.4l1.6-.9Z"/>
    <path class="cls-2" d="M-370.4-67.2c-.2,0-.4,0-.6-.1-.2,0-.3-.2-.4-.4-.1-.2-.2-.4-.2-.7s0-.5.2-.7c.1-.2.3-.3.4-.4.2-.1.4-.2.6-.2s.4,0,.6.2c.2.1.3.2.4.4.1.2.2.4.2.7s0,.5-.2.7-.3.3-.4.4c-.2.1-.4.1-.6.1ZM-370.4-67.6c.1,0,.3,0,.4-.1.1,0,.2-.2.3-.3,0-.1.1-.3.1-.5s0-.4-.1-.5c0-.1-.2-.2-.3-.3-.1,0-.2-.1-.4-.1s-.3,0-.4.1-.2.2-.3.3c0,.1-.1.3-.1.5s0,.4.1.5c0,.1.2.2.3.3.1,0,.3.1.4.1Z"/>
  </g>
  <g>
    <path class="cls-2" d="M51.1,0c-9,.1-16.3,8.1-16.3,17.1v25.3c0,2.2,1.8,4,4,4h0c2.2,0,4-1.8,4-4v-11.5c3,1.8,6.7,2.8,10.6,2.3,8-1,14.2-7.7,14.6-15.7C68.4,7.8,60.6-.2,51.1,0ZM51.3,25.2c-4.7,0-8.5-3.8-8.6-8.4v-.2h0c0-4.8,3.9-8.6,8.6-8.6s8.6,3.9,8.6,8.6-3.9,8.6-8.6,8.6Z"/>
    <path class="cls-2" d="M14.5,46.3c7.8,0,14.1-6.3,14.1-14.1v-15.6c0-2.2-1.8-4-4-4h0c-2.2,0-4,1.8-4,4v13c0,4.8-3.9,8.7-8.7,8.7h-7.6c-2.1,0-4,1.5-4.2,3.7s1.7,4.4,4,4.4h10.4Z"/>
  </g>
  <path class="cls-2" d="M-229.6-15.5c0,2.2,1.8,4,4,4s4-1.8,4-4v-4.4c0-2.2-1.8-4-4-4h0c-2.2,0-4,1.8-4,4v4.4Z"/>
  <circle class="cls-2" cx="93.5" cy="-43.3" r="4"/>
</svg>