<svg width="1280" height="1112" viewBox="0 0 1280 1112" fill="none" xmlns="http://www.w3.org/2000/svg">
<path d="M786.594 711.067L648.98 631.618L786.594 552.168L924.208 631.618L786.594 711.067Z" fill="#2B2A2A"/>
<path d="M786.594 712.798C786.347 712.798 785.851 712.798 785.604 712.55L647.99 633.101C647 632.606 646.752 631.368 647.248 630.378C647.495 630.13 647.743 629.883 647.99 629.635L785.604 550.186C786.099 549.938 787.089 549.938 787.584 550.186L925.198 629.635C925.693 629.883 926.188 630.625 926.188 631.368C926.188 632.111 925.693 632.853 925.198 633.101L787.584 712.55C787.337 712.798 786.842 713.045 786.594 712.798ZM652.94 631.616L786.594 708.838L920.248 631.616L786.594 554.393L652.94 631.616Z" fill="#5D5D5D"/>
<path d="M924.208 1030.22L786.594 1109.67V711.071L924.208 631.621V1030.22Z" fill="#2B2A2A"/>
<path d="M786.593 1111.64C786.346 1111.64 785.851 1111.64 785.603 1111.4C785.108 1111.15 784.613 1110.41 784.613 1109.66V711.063C784.613 710.321 785.108 709.826 785.603 709.331L923.217 629.881C923.712 629.633 924.702 629.633 925.197 629.881C925.692 630.128 926.187 630.871 926.187 631.614V1030.21C926.187 1030.96 925.692 1031.45 925.197 1031.95L787.583 1111.4C787.336 1111.64 786.841 1111.64 786.593 1111.64ZM788.573 712.053V1106.2L922.227 1028.98V634.831L788.573 712.053Z" fill="#5D5D5D"/>
<path d="M786.594 1109.67L648.98 1030.22V631.621L786.594 711.071V1109.67Z" fill="#2B2A2A"/>
<path d="M786.594 1111.64C786.346 1111.64 785.851 1111.64 785.604 1111.4L647.99 1031.95C647.495 1031.7 647 1030.96 647 1030.21V631.614C647 630.871 647.495 630.128 647.99 629.881C648.485 629.633 649.475 629.633 649.97 629.881L787.584 709.331C788.079 709.578 788.574 710.321 788.574 711.063V1109.66C788.574 1110.41 788.079 1111.15 787.584 1111.4C787.337 1111.64 786.842 1111.64 786.594 1111.64ZM650.96 1028.98L784.614 1106.2V712.053L650.96 634.831V1028.98Z" fill="#5D5D5D"/>
<path d="M1158.03 769.524L1038.98 700.717L1158.03 631.91L1277.08 700.717L1158.03 769.524Z" fill="#2B2A2A"/>
<path d="M1158.03 771.512C1157.78 771.512 1157.29 771.512 1157.04 771.265L1037.99 702.458C1037.49 702.21 1037 701.468 1037 700.725C1037 699.983 1037.49 699.24 1037.99 698.993L1157.04 630.186C1157.54 629.938 1158.53 629.938 1159.02 630.186L1278.07 698.993C1278.57 699.24 1279.06 699.983 1279.06 700.725C1279.06 701.468 1278.57 701.963 1278.07 702.458L1159.02 771.265C1158.77 771.265 1158.28 771.512 1158.03 771.512ZM1042.94 700.725L1158.03 767.305L1273.12 700.725L1158.03 634.146L1042.94 700.725Z" fill="#5D5D5D"/>
<path d="M1277.09 980.121L1158.04 1058.93L1158.04 769.53L1277.09 700.723V980.121Z" fill="#2B2A2A"/>
<path d="M1158.03 1060.91C1157.78 1060.91 1157.29 1060.91 1157.04 1060.66C1156.55 1060.41 1156.05 1059.67 1156.05 1058.93L1156.05 769.529C1156.05 768.787 1156.55 768.292 1157.04 767.797L1276.09 698.99C1277.08 698.495 1278.32 698.742 1278.81 699.732C1279.06 699.98 1279.06 700.475 1279.06 700.722V980.12C1279.06 980.863 1278.57 981.605 1278.07 981.853L1159.02 1060.66C1158.77 1060.66 1158.28 1060.91 1158.03 1060.91ZM1160.01 770.519V1055.46L1275.1 978.883V703.94L1160.01 770.519Z" fill="#5D5D5D"/>
<path d="M1158.03 1058.93L1038.98 990.121V700.723L1158.03 769.53V1058.93Z" fill="#2B2A2A"/>
<path d="M1158.03 1060.91C1157.78 1060.91 1157.29 1060.91 1157.04 1060.66L1037.99 991.853C1037.49 991.605 1037 990.863 1037 990.12V700.722C1037 699.732 1037.99 698.742 1038.98 698.742C1039.23 698.742 1039.72 698.742 1039.97 698.99L1159.02 767.797C1159.52 768.044 1160.01 768.787 1160.01 769.529V1058.93C1160.01 1059.67 1159.52 1060.41 1159.02 1060.66C1158.77 1060.66 1158.28 1060.91 1158.03 1060.91ZM1040.96 989.13L1156.05 1055.71V770.767L1040.96 704.187V989.13Z" fill="#5D5D5D"/>
<path d="M102.221 438.743L1.98047 380.827L102.221 322.91L202.461 380.827L102.221 438.743Z" fill="#2B2A2A"/>
<path d="M102.22 440.732C101.973 440.732 101.478 440.732 101.23 440.484L0.990023 382.567C0.495009 382.32 0 381.577 0 380.835C0 380.092 0.495009 379.597 0.990023 379.102L101.23 321.186C101.725 320.938 102.715 320.938 103.21 321.186L203.451 379.102C204.441 379.597 204.688 380.835 204.193 381.825C203.946 382.072 203.698 382.32 203.451 382.567L103.21 440.484C102.963 440.484 102.468 440.732 102.22 440.732ZM5.94016 380.835L102.22 436.524L198.501 380.835L102.22 325.146L5.94016 380.835Z" fill="#5D5D5D"/>
<path d="M202.463 562.17L102.223 620.087V438.756L202.463 380.84V562.17Z" fill="#2B2A2A"/>
<path d="M102.218 622.058C101.228 622.058 100.238 621.068 100.238 620.078V438.748C100.238 438.006 100.733 437.263 101.228 437.016L201.469 379.099C202.459 378.604 203.696 378.852 204.191 379.842C204.439 380.089 204.439 380.584 204.439 380.832V562.162C204.439 562.904 203.944 563.647 203.449 563.894L103.208 621.811C102.961 622.058 102.466 622.058 102.218 622.058ZM104.198 439.738V616.366L200.479 560.677V383.802L104.198 439.738Z" fill="#5D5D5D"/>
<path d="M102.221 620.087L1.98047 562.17V380.84L102.221 438.756V620.087Z" fill="#2B2A2A"/>
<path d="M102.22 622.063C101.973 622.063 101.478 622.063 101.23 621.815L0.990023 563.899C0.495009 563.651 0 562.909 0 562.166V380.836C0 380.094 0.495009 379.351 0.990023 379.104C1.48504 378.856 2.47507 378.856 2.97009 379.104L103.21 437.02C103.705 437.268 104.201 438.01 104.201 438.753V620.083C104.201 621.073 103.21 622.063 102.22 622.063ZM3.96011 560.929L100.24 616.618V439.743L3.96011 384.054V560.929Z" fill="#5D5D5D"/>
<path d="M418.149 97.2424L476.313 63.5814L418.149 30.168L359.984 63.5814L418.149 97.2424Z" fill="#2B2A2A"/>
<path d="M418.144 99.2202C417.897 99.2202 417.402 99.2202 417.154 98.9727L358.99 65.3117C358 64.8167 357.752 63.5792 358.248 62.5891C358.495 62.3416 358.743 62.0941 358.99 61.8466L417.154 28.1856C417.649 27.9381 418.639 27.9381 419.134 28.1856L477.298 61.5991C478.288 62.0941 478.536 63.3317 478.041 64.3217C477.793 64.5692 477.546 64.8167 477.298 65.0642L419.134 98.9727C418.887 99.2202 418.639 99.2202 418.144 99.2202ZM363.94 63.5792L418.144 94.7651L472.348 63.5792L418.144 32.3933L363.94 63.5792Z" fill="#5D5D5D"/>
<path d="M359.984 180.9L418.149 214.314V97.2391L359.984 63.5781V180.9Z" fill="#2B2A2A"/>
<path d="M418.144 216.298C417.897 216.298 417.402 216.298 417.154 216.05L358.99 182.389C358.495 182.142 358 181.399 358 180.657V63.5822C358 62.8397 358.495 62.0972 358.99 61.8497C359.485 61.6022 360.475 61.6022 360.97 61.8497L419.134 95.5107C419.629 95.7582 420.124 96.5007 420.124 97.2432V214.318C420.124 215.06 419.629 215.555 419.134 216.05C418.887 216.298 418.639 216.298 418.144 216.298ZM361.96 179.667L416.164 210.853V98.4808L361.96 67.2948V179.667Z" fill="#5D5D5D"/>
<path d="M418.148 214.314L476.313 180.9V63.5781L418.148 97.2391V214.314Z" fill="#2B2A2A"/>
<path d="M418.144 216.298C417.897 216.298 417.402 216.298 417.154 216.05C416.659 215.803 416.164 215.06 416.164 214.318V97.2432C416.164 96.5007 416.659 95.7582 417.154 95.5107L475.318 61.8497C475.813 61.6022 476.803 61.6022 477.298 61.8497C477.793 62.0972 478.288 62.8397 478.288 63.5822V180.657C478.288 181.399 477.793 182.142 477.298 182.389L419.134 216.05C418.887 216.298 418.639 216.298 418.144 216.298ZM420.124 98.4808V210.853L474.328 179.667V67.2948L420.124 98.4808Z" fill="#5D5D5D"/>
<path d="M1141.03 195.891L1095.98 169.902L1141.03 143.914L1186.07 169.902L1141.03 195.891Z" fill="#2B2A2A"/>
<path d="M1141.03 198.122C1140.78 198.122 1140.28 198.122 1140.04 197.875L1094.99 171.639C1094.49 171.391 1094 170.649 1094 169.906C1094 169.164 1094.49 168.421 1094.99 168.174L1140.04 142.186C1140.53 141.938 1141.52 141.938 1142.02 142.186L1187.06 168.174C1187.56 168.421 1188.05 169.164 1188.05 169.906C1188.05 170.649 1187.56 171.144 1187.06 171.639L1142.02 197.627C1141.77 197.875 1141.27 197.875 1141.03 198.122ZM1099.94 169.906L1141.03 193.667L1182.11 169.906L1141.03 146.146L1099.94 169.906Z" fill="#5D5D5D"/>
<path d="M1186.07 244.458L1141.03 270.446V195.894L1186.07 169.906V244.458Z" fill="#2B2A2A"/>
<path d="M1141.02 272.422C1140.78 272.422 1140.28 272.422 1140.03 272.175C1139.54 271.927 1139.04 271.185 1139.04 270.442V195.891C1139.04 195.148 1139.54 194.406 1140.03 194.158L1185.08 168.17C1185.57 167.922 1186.56 167.922 1187.06 168.17C1187.55 168.418 1188.05 169.16 1188.05 169.903V244.454C1188.05 245.196 1187.55 245.691 1187.06 246.186L1142.01 272.175C1141.77 272.422 1141.27 272.422 1141.02 272.422ZM1143 197.128V266.977L1184.09 243.216V173.368L1143 197.128Z" fill="#5D5D5D"/>
<path d="M1141.03 270.446L1095.98 244.458V169.906L1141.03 195.894V270.446Z" fill="#2B2A2A"/>
<path d="M1141.03 272.429C1140.78 272.429 1140.28 272.429 1140.04 272.182L1094.99 246.194C1094.49 245.946 1094 245.204 1094 244.461V169.91C1094 168.92 1094.99 167.93 1095.98 167.93C1096.23 167.93 1096.72 167.93 1096.97 168.177L1142.02 194.165C1142.51 194.413 1143.01 195.155 1143.01 195.898V270.449C1143.01 271.192 1142.51 271.687 1142.02 272.182C1141.77 272.429 1141.27 272.429 1141.03 272.429ZM1097.96 243.223L1139.05 266.984V197.136L1097.96 173.375V243.223Z" fill="#5D5D5D"/>
<path d="M932.126 205.062C936.581 205.062 940.789 204.32 945.986 204.072C950.689 203.825 956.877 202.339 957.124 197.637C957.372 193.677 952.669 190.212 953.659 186.252C954.154 185.262 954.649 184.271 955.392 183.529C969.994 165.213 967.767 138.483 949.946 123.137C951.184 123.385 952.669 122.642 952.916 121.157V120.91C952.916 119.425 952.421 118.187 951.431 116.95C947.966 112.989 943.511 110.019 938.561 108.534C922.721 103.089 905.643 102.594 889.307 106.802C876.932 110.019 861.834 119.177 863.071 134.028C863.566 139.473 867.526 144.67 872.724 145.165C874.952 161.006 882.872 172.144 893.02 184.024C899.702 192.192 908.365 198.379 918.265 202.34C922.721 204.072 927.423 205.062 932.126 205.062Z" fill="black"/>
<path d="M931.367 207.205C926.664 207.205 921.961 206.463 917.506 204.73C907.358 200.77 898.448 194.088 891.518 185.672C882.608 175.277 873.698 163.644 870.975 147.061C865.282 145.329 861.322 140.131 861.075 134.438C859.837 119.34 874.193 108.698 888.795 104.985C905.378 100.53 922.951 101.025 939.039 106.718C944.485 108.45 949.187 111.42 952.9 115.875C954.137 117.36 954.88 119.34 954.632 121.073C954.385 122.063 954.137 123.053 953.395 123.796C969.978 140.379 971.215 166.614 956.86 184.682C956.365 185.425 955.87 185.92 955.375 186.91C954.88 188.147 955.87 189.632 956.86 191.365C958.097 193.345 958.84 195.573 958.84 197.8C958.592 202.75 953.642 205.72 945.722 206.215C943.495 206.215 941.514 206.463 939.782 206.71C937.059 206.958 934.584 207.205 931.862 207.205H931.367ZM912.061 106.223C904.636 106.223 897.211 107.213 890.033 108.945C880.38 111.42 864.045 119.588 865.282 134.191C865.53 138.398 868.747 143.101 873.202 143.596C874.193 143.596 874.935 144.339 874.935 145.329C876.915 159.932 883.598 170.327 894.736 183.197C901.171 191.118 909.586 197.305 919.239 201.018C923.199 202.503 927.407 203.493 931.862 203.245H932.109C934.584 203.245 937.059 202.998 939.782 202.75C941.762 202.503 943.742 202.503 945.97 202.255C947.455 202.255 954.88 201.513 955.127 197.553C954.88 196.068 954.385 194.583 953.642 193.345C950.92 190.127 950.92 185.425 953.89 182.455C967.998 164.882 965.77 139.389 948.94 124.538C948.197 123.796 947.95 122.558 948.692 121.816C949.187 121.073 950.177 120.825 950.92 121.321C950.92 121.321 951.167 121.073 951.167 120.825C951.167 119.835 950.92 119.093 950.177 118.35C946.96 114.638 942.752 111.915 938.049 110.43C929.634 107.46 920.724 105.975 912.061 106.223Z" fill="black"/>
<path d="M873.139 166.344C873.139 166.344 861.259 184.659 863.734 188.372C866.209 192.084 874.624 189.609 874.624 189.609" fill="white"/>
<path d="M868.932 192.332C866.209 192.58 863.734 191.59 862.002 189.362C859.279 185.155 866.704 172.284 871.407 165.106C871.902 164.116 873.139 163.869 874.13 164.611C875.12 165.106 875.367 166.344 874.624 167.334C868.932 175.997 864.477 185.402 865.219 187.135C866.457 188.867 871.654 188.125 873.882 187.382C874.872 187.135 876.11 187.877 876.357 188.867C876.605 189.857 876.11 190.847 875.12 191.095C873.139 191.837 870.912 192.332 868.932 192.332Z" fill="white"/>
<path d="M875.62 142.096C867.947 148.284 870.174 161.65 870.422 170.312C870.67 182.44 870.917 194.568 871.66 206.448C872.155 214.121 891.955 214.121 895.42 211.893L892.45 242.089L932.299 235.5V201.251C932.299 201.251 918.686 201.498 911.013 185.905C903.34 170.312 904.083 136.404 904.083 136.404C904.083 136.404 883.045 136.156 875.62 142.096Z" fill="white"/>
<path d="M892.449 244.309C891.954 244.309 891.706 244.062 891.211 243.814C890.716 243.319 890.469 242.824 890.469 242.082L893.191 214.856C887.003 215.846 880.321 215.351 874.381 212.876C871.658 211.886 869.925 209.411 869.678 206.688C868.935 194.56 868.44 182.432 868.44 170.305C868.44 168.82 868.44 167.335 868.193 165.602C867.698 157.187 867.203 146.544 874.381 140.604C882.301 134.169 903.339 133.921 904.081 134.169C904.576 134.169 905.071 134.416 905.566 134.664C906.061 135.159 906.061 135.654 906.061 136.149C906.061 136.396 905.319 169.81 912.744 184.66C919.922 199.015 932.05 199.015 932.297 199.015C933.287 199.015 934.277 199.758 934.277 200.748L936.01 235.746C936.01 236.489 935.515 237.479 934.772 237.726L893.191 243.814C892.944 244.309 892.696 244.309 892.449 244.309ZM895.419 209.906C895.666 209.906 896.161 209.906 896.409 210.153C897.151 210.648 897.399 211.391 897.399 212.133L894.676 239.112L932.05 234.509L930.565 202.728C926.357 202.233 915.962 199.51 909.279 186.393C902.349 172.532 902.101 145.801 902.101 137.881C895.419 138.129 882.053 139.366 876.856 143.574C871.41 148.276 871.658 157.682 872.153 165.354C872.153 167.087 872.4 168.572 872.4 170.057C872.648 182.185 872.895 194.313 873.638 206.193C873.638 207.183 874.628 208.173 876.113 209.163C881.806 211.886 892.449 211.391 894.429 210.153C894.676 210.153 895.171 209.906 895.419 209.906Z" fill="white"/>
<path d="M869 202.5C869 202.5 869.41 202.757 872 202.5C872.99 202.5 875.06 201.996 875.06 201.996C878.278 201.006 881 198.531 882.238 195.561C882.733 194.571 882.238 193.333 881.248 192.838C880.258 192.095 879.02 192.59 878.525 193.58C877.535 195.808 875.803 197.293 873.823 198.036C871.348 198.531 869 198.5 869 198.5V202.5Z" fill="#2B2A2A"/>
<path d="M902.555 165.483C902.749 163.151 903.721 160.819 905.276 158.875C906.247 157.32 907.414 155.766 908.774 154.599C910.134 153.433 912.078 152.85 913.827 153.045C915.382 153.433 916.743 154.599 917.52 155.96C918.297 157.32 918.686 159.07 918.686 160.624C919.075 167.816 915.576 174.812 909.357 178.699L909.94 178.116" fill="white"/>
<path d="M909.357 180.252C908.58 180.252 907.802 179.475 907.802 178.697C907.802 178.309 907.997 177.92 908.191 177.726L908.774 177.143C908.969 176.948 909.357 176.754 909.746 176.559C914.605 172.867 917.52 166.842 917.131 160.622C917.131 159.262 916.743 157.901 916.16 156.541C915.577 155.375 914.605 154.597 913.439 154.403C912.078 154.209 910.718 154.597 909.552 155.569C908.386 156.735 907.219 158.096 906.442 159.456C905.081 161.011 904.304 163.149 904.11 165.093C904.11 165.87 903.332 166.647 902.555 166.647C901.777 166.647 901 165.87 901 165.093C901.194 162.372 902.166 159.845 903.915 157.707C904.887 155.958 906.248 154.403 907.608 153.043C909.357 151.488 911.69 150.71 914.022 151.099C916.16 151.488 917.909 152.848 918.881 154.792C919.658 156.541 920.241 158.29 920.241 160.234C920.63 168.202 916.743 175.588 910.135 179.864C909.94 180.252 909.552 180.252 909.357 180.252Z" fill="black"/>
<path d="M883.482 157.862C883.605 155.404 881.855 153.319 879.575 153.205C877.294 153.091 875.345 154.991 875.222 157.449C875.1 159.906 876.849 161.991 879.13 162.105C881.41 162.219 883.359 160.319 883.482 157.862Z" fill="#2B2A2A"/>
<path d="M748.893 312.629C748.893 312.629 732.558 291.591 731.073 287.135C729.588 282.68 729.588 273.77 726.122 267.582C722.657 261.395 713.995 256.197 710.034 264.86C710.034 264.86 707.559 250.752 698.154 258.92C688.749 267.087 687.016 276.493 689.739 287.135C692.461 297.778 733.795 351.735 733.795 351.735" fill="white"/>
<path d="M734.044 353.708C733.549 353.708 732.806 353.46 732.559 352.965C730.826 350.737 690.977 298.514 688.255 287.623C685.037 275.248 688.007 265.348 697.165 257.427C700.135 254.705 703.105 253.962 705.828 254.705C708.303 255.695 710.283 257.922 711.026 260.397C712.263 259.16 714.243 258.417 715.976 258.417C720.926 258.17 725.876 262.377 728.351 266.833C730.579 271.288 731.816 276.238 732.311 281.436C732.559 283.168 732.806 285.148 733.301 286.881C734.291 289.851 744.439 303.711 750.627 311.631C751.369 312.374 751.122 313.859 750.379 314.354C749.389 315.096 748.152 314.849 747.657 314.106C744.934 310.641 730.826 292.573 729.589 287.871C729.094 285.891 728.599 283.911 728.351 281.931C727.856 277.475 726.618 273.02 724.886 268.813C722.906 265.1 719.193 262.377 716.223 262.377C714.491 262.377 713.253 263.615 712.263 265.843C712.016 266.585 711.025 267.08 710.283 267.08C709.54 267.08 708.798 266.338 708.55 265.595C708.303 264.11 707.065 259.655 704.59 258.665C703.105 258.17 701.125 259.407 699.888 260.645C691.72 267.575 689.492 275.99 692.215 286.881C694.443 295.296 724.391 335.887 735.776 350.985C736.519 351.975 736.271 353.213 735.529 353.708C735.034 353.708 734.539 353.708 734.044 353.708Z" fill="white"/>
<path d="M1104.31 363.865C1104.31 363.865 1109.02 374.26 1111.74 381.933C1114.46 389.606 1114.71 404.209 1114.71 404.209C1116.69 401.981 1119.66 401.486 1121.89 399.506C1122.13 402.724 1122.88 405.941 1124.11 408.911C1125.35 411.881 1128.07 414.109 1131.29 414.852C1133.02 414.852 1134.76 414.604 1136.24 414.109C1142.18 412.376 1152.08 408.911 1153.32 401.981C1153.57 399.259 1153.07 396.536 1151.83 394.061C1147.63 383.418 1127.83 355.697 1124.61 351.242" fill="white"/>
<path d="M1132.28 416.823H1131.29C1127.33 416.08 1124.11 413.605 1122.38 409.892C1121.39 407.665 1120.65 405.437 1120.4 402.962L1119.66 403.457C1118.42 403.952 1117.43 404.695 1116.44 405.685C1115.94 406.18 1114.95 406.427 1114.21 406.18C1113.47 405.932 1112.97 405.19 1112.97 404.447C1112.97 404.2 1112.48 390.092 1110 382.667C1107.53 375.241 1102.83 364.846 1102.83 364.846C1102.33 363.856 1102.58 362.618 1103.57 362.123C1104.56 361.628 1105.8 361.876 1106.29 362.866V363.114C1106.54 363.609 1111.24 373.756 1113.72 381.429C1115.45 387.617 1116.44 394.052 1116.69 400.487L1117.92 399.992C1118.91 399.497 1119.9 399.002 1120.65 398.26C1121.14 397.765 1121.88 397.517 1122.63 397.765C1123.37 398.012 1123.86 398.755 1123.86 399.497C1124.11 402.467 1124.61 405.437 1125.84 408.407C1126.83 410.882 1129.06 412.615 1131.54 413.11C1133.02 413.11 1134.51 412.862 1135.74 412.367C1142.43 410.387 1150.59 407.17 1151.58 401.725C1151.83 399.25 1151.34 397.022 1150.35 394.794C1146.39 385.142 1129.31 360.391 1123.37 352.471C1122.63 351.481 1122.87 350.243 1123.86 349.748C1124.85 349.006 1125.84 349.253 1126.59 350.243C1126.83 350.491 1149.11 381.677 1154.06 393.309C1155.54 396.032 1156.04 399.25 1155.54 402.467C1153.81 411.13 1141.93 414.595 1136.98 416.328C1135.5 416.575 1133.76 416.823 1132.28 416.823Z" fill="white"/>
<path d="M844.429 617.312C844.429 617.312 851.112 647.26 838.737 652.705C826.361 658.15 758.297 611.619 762.01 599.986C765.722 588.353 787.255 582.661 808.046 596.521C819.679 604.194 831.807 611.124 844.429 617.312Z" fill="#5D5D5D"/>
<path d="M836.508 655.167C822.647 655.167 788.739 632.643 773.146 618.783C758.295 605.418 759.781 600.963 760.028 599.23C762.008 593.785 766.463 589.577 771.908 588.092C782.799 584.132 796.907 586.607 809.034 594.775C820.42 602.448 832.548 609.378 844.923 615.565C845.418 615.813 845.913 616.308 846.161 617.05C846.903 620.268 852.843 648.979 839.478 654.672C838.488 654.919 837.498 655.167 836.508 655.167ZM783.046 590.32C779.829 590.32 776.611 590.815 773.393 591.805C769.186 593.042 765.473 596.26 763.988 600.468C763.493 601.705 765.473 606.655 775.868 615.565C796.907 634.376 831.31 653.682 837.993 650.711C846.408 646.999 844.428 627.198 842.695 618.536C830.32 612.348 818.44 605.665 807.054 597.992C800.124 593.29 791.709 590.567 783.046 590.32Z" fill="black"/>
<path d="M963.975 470.533C963.975 470.533 888.733 496.769 830.569 490.582L845.172 617.058C845.172 617.058 824.133 626.463 798.145 597.752C798.145 597.752 763.742 443.555 777.85 434.892C791.957 426.23 928.334 424.992 928.334 424.992L963.975 470.533Z" fill="black"/>
<path d="M836.012 620.772C827.102 620.772 812.747 617.06 796.659 599.239C796.411 598.992 796.164 598.744 796.164 598.249C790.224 572.261 762.255 442.072 776.858 433.409C791.461 424.747 922.64 423.262 928.332 423.262C928.827 423.262 929.57 423.509 929.818 424.004L965.459 469.298C965.954 469.793 965.954 470.536 965.706 471.031C965.459 471.526 964.964 472.021 964.469 472.268C963.726 472.516 890.216 497.761 832.795 492.564L847.15 616.565C847.15 617.307 846.903 618.297 845.913 618.545C842.943 620.277 839.477 620.772 836.012 620.772ZM799.876 597.012C820.914 620.277 837.992 617.307 842.943 615.822L828.587 490.831C828.34 489.841 829.082 488.851 830.32 488.604C830.567 488.604 830.567 488.604 830.815 488.604C881.801 494.049 946.896 474.001 960.508 469.546L927.342 427.222C888.979 427.469 789.976 429.944 778.838 436.875C769.928 442.072 785.768 533.402 799.876 597.012Z" fill="black"/>
<path d="M1004.57 445.289C1004.57 445.289 1001.6 564.092 1005.56 565.825C1009.52 567.558 1124.86 650.967 1124.86 650.967L1129.06 689.826C1129.06 689.826 967.938 620.772 959.522 599.239C951.107 577.705 918.684 451.724 918.684 451.724L1004.57 445.289Z" fill="black"/>
<path d="M1129.06 691.806C1128.82 691.806 1128.57 691.806 1128.32 691.558C1121.64 688.836 966.452 621.761 957.789 599.981C949.374 578.695 918.188 457.417 916.95 452.219C916.703 451.229 917.445 449.991 918.435 449.744H918.683L1004.57 443.309C1005.56 443.309 1006.55 444.051 1006.8 445.289C1006.8 445.289 1006.8 445.289 1006.8 445.536C1005.56 488.355 1004.82 557.657 1007.04 564.34C1016.7 570.032 1114.71 641.067 1126.09 649.482C1126.59 649.73 1126.84 650.225 1126.84 650.72L1131.04 689.578C1131.04 690.321 1130.8 691.063 1130.3 691.311C1129.81 691.558 1129.56 691.806 1129.06 691.806ZM921.158 453.456C925.613 470.534 953.581 578.942 961.254 598.496C967.937 615.079 1080.06 666.56 1126.59 686.608L1122.88 652.205C1077.09 619.039 1008.53 569.537 1004.82 567.805C1003.33 567.31 999.618 565.577 1002.59 447.516L921.158 453.456Z" fill="black"/>
<path d="M837.254 271.788C837.254 271.788 841.709 245.552 917.446 231.939C937.989 228.226 958.285 229.959 972.393 234.909C975.115 246.542 999.619 416.332 1010.51 456.18C1010.51 456.18 918.931 489.841 873.142 434.152C873.142 434.152 843.937 284.163 837.254 271.788Z" fill="#93CAF6"/>
<path d="M963 232.5C963 232.5 1029.57 247.529 1048.38 258.914C1067.19 270.299 1140.2 349.254 1140.2 349.254L1091.69 376.727C1091.69 376.727 1045.9 321.533 1032.54 313.613C1019.17 305.693 959.027 312.128 959.027 312.128L963 232.5Z" fill="#93CAF6"/>
<path d="M837.256 271.785C837.256 271.785 793.695 351.235 786.27 347.027C778.845 342.82 747.659 295.298 747.659 295.298L713.008 334.652C713.008 334.652 741.471 423.755 783.3 413.607C825.129 403.459 888.985 329.454 888.985 329.454L837.256 271.785Z" fill="#93CAF6"/>
<path d="M831.264 390.893C830.523 390.945 830.012 390.732 829.467 390.026C828.905 389.072 829.066 387.821 829.772 387.275C862.828 363.143 885.753 325.326 885.983 325.062C886.655 324.022 887.873 323.69 888.665 324.379C889.704 325.051 890.037 326.268 889.348 327.061C889.118 327.325 865.997 365.9 832.235 390.577C832.005 390.842 831.758 390.859 831.264 390.893Z" fill="#2B2A2A"/>
<path d="M1005.72 420.792C1004.73 420.808 1003.98 420.078 1003.72 419.34C998.624 395.908 979.106 278.897 979.085 277.66C978.821 276.674 979.543 275.425 980.533 275.408C981.523 275.392 982.768 275.866 982.785 276.856L982.789 277.103C983.057 278.337 1002.33 395.351 1007.42 418.536C1007.68 419.521 1006.96 420.771 1005.97 420.787C1006.22 420.783 1005.97 420.787 1005.72 420.792Z" fill="#2B2A2A"/>
<path d="M1104.31 673.491C1095.65 645.275 1105.06 632.157 1115.2 631.662C1125.35 631.167 1131.79 629.435 1139.71 657.156C1147.63 684.876 1148.62 728.685 1132.53 730.913C1116.44 733.14 1112.98 701.707 1104.31 673.491Z" fill="#5D5D5D"/>
<path d="M1131.04 733.14C1118.17 733.14 1113.22 714.082 1107.53 692.302C1106.04 686.361 1104.31 680.174 1102.58 674.234C1097.63 658.146 1097.88 644.533 1103.57 636.612C1106.29 632.652 1110.5 630.177 1115.2 629.682H1116.44C1127.58 628.94 1134.26 629.93 1141.93 656.661C1148.62 679.926 1150.1 713.835 1141.69 726.953C1139.95 730.17 1136.74 732.398 1133.02 732.893C1132.28 733.14 1131.79 733.14 1131.04 733.14ZM1119.91 633.395C1118.92 633.395 1117.68 633.395 1116.44 633.642H1115.2C1111.74 633.89 1108.52 635.87 1106.54 638.84C1103.82 642.8 1099.86 652.7 1106.04 672.996C1108.02 678.936 1109.51 685.124 1111 691.312C1116.44 712.35 1121.39 730.665 1132.03 728.933C1134.51 728.438 1136.49 726.953 1137.73 724.725C1145.4 712.597 1143.91 679.679 1137.48 657.898C1131.54 636.117 1126.84 633.395 1119.91 633.395Z" fill="black"/>
<path d="M1025 58.4611C1085.14 99.2998 1114.1 29.5028 1145.29 74.3015V9.9497C1089.35 -18.7611 1096.03 45.5907 1025 58.4611Z" fill="#3B98E6"/>
<path d="M1145.04 168.847C1143.8 168.847 1143.06 167.857 1143.06 166.867V1.77997C1143.31 0.54243 1144.3 -0.200084 1145.29 0.0474231C1146.28 0.0474231 1147.02 0.789937 1147.02 1.77997V166.867C1147.27 167.857 1146.28 168.847 1145.04 168.847Z" fill="#D2D2D2"/>
<path d="M1220.29 848.941V785.611L1220.12 785.705L1203.59 807.562V800.775L1220.21 778.529L1225.93 775.357V845.816L1220.29 848.941Z" fill="#5D5D5D"/>
<path d="M151.123 524.529C141.215 530.021 134.861 527.137 134.109 518.882L134.075 518.471L138.585 515.972L138.619 516.304C139.302 522.019 143.948 523.819 151.123 519.842C158.229 515.903 163.252 508.353 163.252 501.673V501.595C163.252 494.212 158.4 492.683 150.576 497.02L144.632 500.315V495.745L150.371 492.563C156.931 488.927 161.509 481.936 161.509 475.725V475.647C161.509 469.319 157.444 467.549 150.952 471.147C144.598 474.67 140.19 481.214 139.644 487.494L139.61 487.903L135.1 490.403L135.134 489.994C135.886 480.905 141.967 471.44 150.952 466.46C160.04 461.422 166.224 464.01 166.224 472.409V472.487C166.224 479.44 161.988 486.671 155.701 491.601V491.757C163.047 488.35 168.001 490.838 168.001 498.846V498.924C168.001 508.26 160.86 519.132 151.123 524.529Z" fill="#5D5D5D"/>
<path d="M449.775 179.83V173.092L435.532 180.987V177.325L447.967 148.421L453.193 145.524V167.648L457.2 165.427V168.976L453.193 171.197V177.935L449.775 179.83ZM439.029 175.499L449.775 169.543V150.878L449.657 150.943L439.029 175.41V175.499Z" fill="#5D5D5D"/>
<path d="M1163.42 235.862C1159.18 238.214 1156.15 236.869 1155.83 232.918L1155.81 232.733L1158.54 231.224L1158.55 231.356C1158.83 233.717 1160.8 234.542 1163.46 233.068C1166.47 231.397 1168.56 227.848 1168.56 224.437V224.402C1168.54 221.071 1166.44 219.848 1163.5 221.476C1161.99 222.311 1160.7 223.536 1159.72 225.101C1159.32 225.745 1158.97 226.433 1158.67 227.175L1156.23 228.53L1157.37 213.433L1170.07 206.393V209.206L1159.64 214.984L1158.89 223.927L1158.95 223.893C1160 221.608 1161.84 219.671 1163.99 218.478C1168.25 216.118 1171.33 217.946 1171.33 222.816V222.851C1171.31 227.939 1168.04 233.305 1163.42 235.862Z" fill="#898989"/>
<path d="M693.611 788.664V785.149L719.901 767.905C731.226 760.589 734.301 756.552 734.301 748.7V748.583C734.25 737.773 726.563 725.309 716.211 719.571C705.5 713.634 697.813 717.634 697.352 728.277L697.301 728.952L693.355 726.765L693.406 726.031C693.918 712.897 703.297 708.252 716.16 715.382C728.92 722.456 738.35 737.819 738.35 750.71V750.827C738.298 759.646 734.66 764.485 722.207 772.523L699.402 787.363V787.656L741.117 810.779V814.998L693.611 788.664Z" fill="#5D5D5D"/>
</svg>
